<?xml version="1.0" encoding="utf-8"?>
<!-- Generator: Adobe Illustrator 16.0.0, SVG Export Plug-In . SVG Version: 6.00 Build 0)  -->
<!DOCTYPE svg PUBLIC "-//W3C//DTD SVG 1.1//EN" "http://www.w3.org/Graphics/SVG/1.1/DTD/svg11.dtd">
<svg version="1.1" id="icons" xmlns="http://www.w3.org/2000/svg" xmlns:xlink="http://www.w3.org/1999/xlink" x="0px" y="0px"
	 width="64px" height="64px" viewBox="0 0 64 64" enable-background="new 0 0 64 64" xml:space="preserve">
<g>
	<path fill="#E6E9ED" d="M53.386,41.384c-0.256,0-0.512-0.098-0.708-0.293l-3.535-3.533c-0.391-0.391-0.39-1.025,0-1.414
		c0.391-0.393,1.023-0.393,1.414,0l3.536,3.533c0.391,0.391,0.391,1.023,0,1.414C53.897,41.286,53.641,41.384,53.386,41.384z"/>
	<path fill="#E6E9ED" d="M20.152,8.153c-0.256-0.002-0.512-0.1-0.707-0.293L15.91,4.323c-0.392-0.391-0.392-1.023,0-1.414
		c0.391-0.391,1.023-0.391,1.414,0l3.535,3.537c0.391,0.389,0.392,1.023,0,1.412C20.665,8.054,20.409,8.151,20.152,8.153z"/>
	<g>
		<path fill="#CCD1D9" d="M37.001,48.96V57h-4v-8.04C34.334,49.019,35.668,49.019,37.001,48.96z"/>
		<path fill="#A0D468" d="M35.001,27.659c0.78,0.781,0.78,2.051,0.001,2.83l-2.831,2.832c0.781-0.781,2.04-0.781,2.82,0
			c0.79,0.777,0.79,2.049,0,2.828l7.08-7.08c0.779-0.779,2.05-0.779,2.83,0.002c0.779,0.779,0.779,2.049,0,2.828L33.841,42.96
			c-4.63-0.24-8.859-1.99-12.21-4.76l10.54-10.541C32.952,26.88,34.221,26.88,35.001,27.659z"/>
		<path fill="#A0D468" d="M27.221,19.89c-0.779,0.781-2.05,0.781-2.83,0c-0.779-0.779-0.779-2.049,0.001-2.83l3.539-3.541
			c-0.779,0.781-2.05,0.781-2.83,0c-0.779-0.779-0.779-2.049,0-2.828l9.67-9.682c0.081-0.008,0.15-0.01,0.23-0.01
			c6.16,0.002,11.7,2.66,15.55,6.881l-11.3,11.301c-0.78,0.779-2.05,0.779-2.83,0s-0.78-2.051,0-2.83l4.25-4.25
			c-0.78,0.779-2.049,0.779-2.83,0c-0.78-0.781-0.78-2.051,0-2.832L27.221,19.89z"/>
		<path fill="#656D78" d="M53.001,58.998v4.001l-36,0.002L17.002,59c-0.001-1.102,0.899-2.002,1.999-2h14.5h3l14.5-0.002
			C52.101,56.998,53.001,57.898,53.001,58.998z"/>
		<path fill="#E6E9ED" d="M18.031,38.97c9.37,9.379,24.569,9.381,33.939,0l2.12,2.119c-4.89,4.893-11.189,7.521-17.59,7.871
			c-1,0.059-2,0.059-3,0c-6.4-0.35-12.7-2.979-17.59-7.871c-10.55-10.539-10.55-27.629,0-38.18l2.12,2.121
			C8.661,14.411,8.661,29.601,18.031,38.97z"/>
		<path fill="#4A89DC" d="M34.991,33.321c-0.78-0.781-2.039-0.781-2.82,0l2.831-2.832c0.779-0.779,0.779-2.049-0.001-2.83
			c-0.78-0.779-2.049-0.779-2.83,0L21.631,38.2c-4.659-3.852-7.63-9.682-7.63-16.201c0-5.789,2.35-11.039,6.15-14.84v-0.01
			c3.751-3.748,8.909-6.09,14.619-6.141l-9.67,9.682c-0.779,0.779-0.779,2.049,0,2.828c0.78,0.781,2.051,0.781,2.83,0l-3.539,3.541
			c-0.78,0.781-0.78,2.051-0.001,2.83c0.78,0.781,2.051,0.781,2.83,0l10.62-10.621c-0.78,0.781-0.78,2.051,0,2.832
			c0.781,0.779,2.05,0.779,2.83,0l-4.25,4.25c-0.78,0.779-0.78,2.051,0,2.83s2.05,0.779,2.83,0l11.3-11.301
			c3.381,3.74,5.45,8.68,5.451,14.119c-0.001,5.801-2.351,11.051-6.151,14.85c-3.8,3.801-9.05,6.15-14.85,6.152
			c-0.39,0-0.779-0.012-1.16-0.041l11.061-11.061c0.779-0.779,0.779-2.049,0-2.828c-0.78-0.781-2.051-0.781-2.83-0.002l-7.08,7.08
			C35.781,35.37,35.781,34.099,34.991,33.321z"/>
	</g>
	<path fill="#E6E9ED" d="M35.001,47.001c-6.678,0-12.956-2.602-17.678-7.324c-4.723-4.721-7.322-11-7.322-17.678
		c0-6.676,2.6-12.955,7.322-17.678c0.391-0.391,1.023-0.391,1.414,0s0.392,1.023,0,1.416c-8.968,8.967-8.968,23.559,0,32.525
		c8.969,8.969,23.559,8.969,32.527,0c0.391-0.391,1.023-0.391,1.414,0s0.391,1.023,0,1.414
		C47.957,44.401,41.679,47.001,35.001,47.001z"/>
</g>
</svg>
