<svg xmlns="http://www.w3.org/2000/svg" viewBox="0 0 64 64"><g id="_07-Vision" data-name="07-Vision"><path d="M47,63H17a3.85,3.85,0,0,1,2.91-3.73l4.5-.94A1.993,1.993,0,0,0,26,56.37V51H38v5.37a1.993,1.993,0,0,0,1.59,1.96l4.5.94A3.85,3.85,0,0,1,47,63Z" style="fill:#393d48"/><path d="M63,13V45H1V13A4,4,0,0,1,5,9H59A4,4,0,0,1,63,13Z" style="fill:#fbfbfb"/><path d="M63,45v2a4,4,0,0,1-4,4H5a4,4,0,0,1-4-4V45Z" style="fill:#8394b2"/><path d="M59,49H5a4,4,0,0,1-4-4v2a4,4,0,0,0,4,4H59a4,4,0,0,0,4-4V45A4,4,0,0,1,59,49Z" style="fill:#5c6979"/><path d="M7,18V9H5a4,4,0,0,0-4,4V45H63V40H29A22,22,0,0,1,7,18Z" style="fill:#edf4fa"/><path d="M26.851,61a1,1,0,0,1-.625-1.781l1.579-.694A2,2,0,0,0,29,56.694V55a2,2,0,0,1,2-2h7V51H26v5.37a1.993,1.993,0,0,1-1.59,1.96l-4.5.94A3.85,3.85,0,0,0,17,63H47a3.82,3.82,0,0,0-.575-2Z" style="fill:#2b2b37"/><path d="M28.659,22.081l.8,2.09.01.01.1.25c-.02.42-.55,1.42-2.959,3.829l-.69-2.059A10.492,10.492,0,0,1,19.06,28.94,10.492,10.492,0,0,1,21.8,22.081l-2.059-.69c2.409-2.409,3.409-2.939,3.829-2.959l.25.1.01.01,2.09.8Z" style="fill:#a81e29"/><path d="M46.506,1.494c.65.65.68,2.829-.04,5.529a3.882,3.882,0,0,1-5.489-5.489C43.677.814,45.856.844,46.506,1.494Z" style="fill:#f7594e"/><circle cx="35.998" cy="12.002" r="4.002" style="fill:#fbfbfb"/><path d="M28.9,10.033c-2.31,3.389-3.33,7.029-2.98,9.308l-2.09-.8-.01-.01a.269.269,0,0,0-.25-.1L17,15.9l5.489-5.479A4.825,4.825,0,0,1,28.9,10.033Z" style="fill:#ff7376"/><path d="M28.659,22.081c2.269.35,5.909-.67,9.308-2.98a4.825,4.825,0,0,1-.39,6.41L32.1,31l-2.53-6.569a.269.269,0,0,0-.1-.25l-.01-.01Z" style="fill:#ff7376"/><path d="M37.967,19.1c-3.4,2.31-7.039,3.33-9.308,2.98l-2.74-2.74c-.35-2.279.67-5.919,2.98-9.308a20.245,20.245,0,0,1,2.509-3.05,21.918,21.918,0,0,1,9.569-5.449,3.882,3.882,0,0,0,5.489,5.489,21.918,21.918,0,0,1-5.449,9.569A20.245,20.245,0,0,1,37.967,19.1Zm-4.8-9.928a4,4,0,1,0,5.659,0A4.006,4.006,0,0,0,33.168,9.173Z" style="fill:#ffad39"/><path d="M28.9,10.033A4.725,4.725,0,0,0,27.8,9.4l-3.421,3.992A4,4,0,0,1,20.9,14.766l-2.484-.276L17,15.9l6.569,2.53a.269.269,0,0,1,.25.1l.01.01,2.09.8C25.569,17.062,26.589,13.422,28.9,10.033Z" style="fill:#e03e3e"/><path d="M34.979,22.587l3.555-2.54a4.737,4.737,0,0,0-.567-.945c-3.4,2.309-7.039,3.329-9.308,2.979l.8,2.09.01.01a.269.269,0,0,1,.1.25L32.1,31l1.664-1.667-.418-2.926A4,4,0,0,1,34.979,22.587Z" style="fill:#e03e3e"/><path d="M46.889,2.336a.931.931,0,0,1-.026.223A21.38,21.38,0,0,1,44.58,8.027a3.857,3.857,0,0,0,1.886-1A10.966,10.966,0,0,0,46.889,2.336Z" style="fill:#cb3541"/><path d="M39.135,14.455a3.929,3.929,0,0,1-.308.377,3.931,3.931,0,0,1-1.086.753c-.579.443-1.152.853-1.708,1.225a7.533,7.533,0,0,1-9.762-1.177,9.4,9.4,0,0,0-.352,3.708l2.74,2.74c2.269.35,5.909-.67,9.308-2.979a20.313,20.313,0,0,0,3.05-2.51,21.918,21.918,0,0,0,5.449-9.569,3.857,3.857,0,0,1-1.886,1A25.791,25.791,0,0,1,39.135,14.455Z" style="fill:#e68c15"/><path d="M39.533,8.467a5,5,0,1,0,0,7.071A5,5,0,0,0,39.533,8.467Zm-.706,6.365a4,4,0,1,1,0-5.659A4.006,4.006,0,0,1,38.827,14.832Z" style="fill:#cb3541"/><path d="M39.827,12.832A4,4,0,0,1,33.065,9.3a4,4,0,1,0,6.865,3.408C39.893,12.747,39.866,12.793,39.827,12.832Z" style="fill:#c1cfe8"/><path d="M25.919,19.341l-.237-.09c-.933.769-3.622,3.282-3.622,6.689,3.407,0,5.92-2.689,6.689-3.622l-.09-.237Z" style="fill:maroon"/><path d="M19.569,19.432l.25.1A.269.269,0,0,0,19.569,19.432Z" style="fill:#d6e0eb"/><path d="M23.569,18.432l.25.1A.269.269,0,0,0,23.569,18.432Z" style="fill:#d6e0eb"/><path d="M21.8,22.081l-2.059-.69c2.409-2.409,3.409-2.939,3.829-2.959L17,15.9l5.489-5.479a4.754,4.754,0,0,1,.374-.312,4.8,4.8,0,0,0-4.374,1.312L13,16.9l6.569,2.53a.269.269,0,0,1,.25.1l-.25-.1c-.42.02-1.42.55-3.829,2.959l2.059.69A10.492,10.492,0,0,0,15.06,29.94a9.853,9.853,0,0,0,4.284-1.011c-.1,0-.187.011-.284.011A10.492,10.492,0,0,1,21.8,22.081Z" style="fill:#d6e0eb"/><path d="M22.609,29.26c.77-.77,1.332-1.383,1.762-1.892a10.95,10.95,0,0,1-2.063.994Z" style="fill:#d6e0eb"/><path d="M29.568,24.431a.269.269,0,0,0-.1-.25Z" style="fill:#d6e0eb"/><path d="M26.644,28.224,28.1,32l3.164-3.17-1.694-4.4C29.549,24.849,29.021,25.843,26.644,28.224Z" style="fill:#d6e0eb"/><path d="M36,17a5,5,0,1,0-3.536-1.462A4.99,4.99,0,0,0,36,17Zm-2.122-7.12a3,3,0,1,1,0,4.244A2.994,2.994,0,0,1,33.878,9.878Z"/><path d="M21.782,9.708,16.293,15.2a1,1,0,0,0,.348,1.64l4.641,1.785a29.437,29.437,0,0,0-2.244,2.065,1,1,0,0,0,.39,1.655l.7.233a11.277,11.277,0,0,0-2.067,6.366,1,1,0,0,0,1,1,11.277,11.277,0,0,0,6.366-2.067l.233.7a1,1,0,0,0,1.655.39,29.352,29.352,0,0,0,2.064-2.244l1.786,4.641a1,1,0,0,0,.725.619A.98.98,0,0,0,32.1,32a1,1,0,0,0,.707-.293l5.489-5.489a5.841,5.841,0,0,0,1.01-6.862A21.463,21.463,0,0,0,41.723,17.3a22.842,22.842,0,0,0,5.57-9.516C48.052,5.2,48.43,2.005,47.212.788S42.8-.052,40.219.707A22.842,22.842,0,0,0,30.7,6.277,21.668,21.668,0,0,0,28.628,8.69,5.841,5.841,0,0,0,21.782,9.708ZM23.2,11.122a3.85,3.85,0,0,1,4.314-.771,17.309,17.309,0,0,0-2.627,7.514l-.609-.234a1.124,1.124,0,0,0-.165-.1,1.327,1.327,0,0,0-.342-.092L18.8,15.523Zm3.836,15.249-.163-.491a1,1,0,0,0-1.656-.39,9.612,9.612,0,0,1-5.085,2.382,9.762,9.762,0,0,1,2.382-5.085,1,1,0,0,0-.39-1.656l-.491-.163a9.638,9.638,0,0,1,1.9-1.482l1.838.706,2.445,2.445.706,1.838A9.638,9.638,0,0,1,27.032,26.371ZM36.878,24.8l-4.4,4.4-1.914-4.974a1.352,1.352,0,0,0-.091-.34,1.124,1.124,0,0,0-.1-.165l-.24-.623a17.25,17.25,0,0,0,7.513-2.626A3.849,3.849,0,0,1,36.878,24.8ZM45.791,2.195c.331.418.326,2.086-.223,4.268a2.945,2.945,0,0,1-3.845-.186,2.851,2.851,0,0,1-.186-3.849C43.716,1.879,45.379,1.869,45.791,2.195Zm-13.674,5.5a20.26,20.26,0,0,1,6.866-4.428A4.873,4.873,0,0,0,43.76,9.119a4.927,4.927,0,0,0,.975-.1,20.225,20.225,0,0,1-4.426,6.865c-3.645,3.646-8.444,5.475-11.182,5.246l-2.256-2.256C26.634,16.134,28.471,11.338,32.117,7.691Z"/><path d="M59,8H49v2H59a3,3,0,0,1,3,3V44H12v2H62v1a3,3,0,0,1-3,3H5a3,3,0,0,1-3-3V46H6V44H2V13a3,3,0,0,1,3-3H17V8H5a5.006,5.006,0,0,0-5,5V47a5.006,5.006,0,0,0,5,5H25v4.375a1,1,0,0,1-.8.979l-4.538.948A4.836,4.836,0,0,0,16,63a1,1,0,0,0,1,1H47a1,1,0,0,0,1-1,4.846,4.846,0,0,0-3.706-4.707l-4.5-.939a1,1,0,0,1-.8-.979V53H37v3.375a3.014,3.014,0,0,0,2.386,2.937l4.461.931A2.837,2.837,0,0,1,45.819,62H18.18a2.809,2.809,0,0,1,1.935-1.749l4.5-.939A3.014,3.014,0,0,0,27,56.375V52H59a5.006,5.006,0,0,0,5-5V13A5.006,5.006,0,0,0,59,8Z"/><rect x="8" y="44" width="2" height="2"/><rect x="39.55" y="19.5" width="9.899" height="2" transform="translate(-1.462 37.471) rotate(-45)"/><rect x="36.964" y="27.5" width="7.071" height="2" transform="translate(-8.29 36.985) rotate(-45)"/><rect x="34.586" y="32" width="2.828" height="2" transform="translate(-12.79 35.121) rotate(-45)"/><rect x="20.964" y="2.5" width="7.071" height="2" transform="translate(4.701 18.349) rotate(-45)"/><rect x="18.586" y="7" width="2.828" height="2" transform="translate(0.201 16.485) rotate(-45)"/></g></svg>