<?xml version="1.0" encoding="iso-8859-1"?>
<!-- Generator: Adobe Illustrator 22.0.1, SVG Export Plug-In . SVG Version: 6.00 Build 0)  -->
<svg version="1.1" xmlns="http://www.w3.org/2000/svg" xmlns:xlink="http://www.w3.org/1999/xlink" x="0px" y="0px"
	 viewBox="0 0 512 512" style="enable-background:new 0 0 512 512;" xml:space="preserve">
<g id="BULINE">
	<circle id="XMLID_479_" style="fill:#556AAC;" cx="256" cy="256" r="256"/>
</g>
<g id="Icons">
	<g id="XMLID_867_">
		<path id="XMLID_1351_" style="fill:#4A5D8F;" d="M454.11,355.88c0,29.19-6.36,56.91-17.77,81.82
			c-7.08,7.03-14.58,13.65-22.44,19.82c-20.99,16.47-44.61,29.73-70.14,39.03c-20.44,7.47-42.1,12.4-64.59,14.42
			c-7.63,0.68-15.36,1.03-23.17,1.03c-9.18,0-18.24-0.48-27.17-1.43c-19.81-2.08-38.95-6.43-57.15-12.79
			c-10.17-3.54-20.04-7.71-29.58-12.46c-14.66-7.29-28.52-15.95-41.42-25.8c-7.05-5.4-13.82-11.15-20.27-17.23
			c-12.77-26.08-19.94-55.41-19.94-86.41c0-35.43,9.36-68.67,25.74-97.38c1.42-2.49,2.89-4.94,4.42-7.36
			c6.25-9.93,13.37-19.26,21.24-27.89c3.53-3.87,7.21-7.59,11.04-11.17c1.3-1.22,2.62-2.42,3.96-3.61
			c22.74-20.13,50.16-35.08,80.43-43c0.12-0.04,0.23-0.07,0.35-0.09c5.09-1.33,10.26-2.45,15.5-3.37
			c5.88-1.03,11.84-1.79,17.89-2.29c5.36-0.44,10.78-0.66,16.25-0.66c19.06,0,37.48,2.71,54.91,7.77
			c27.07,7.84,51.74,21.35,72.64,39.15c1.77,1.51,3.51,3.04,5.22,4.61c1.97,1.81,3.91,3.65,5.81,5.54
			c10.69,10.59,20.17,22.41,28.21,35.22c1.48,2.35,2.91,4.73,4.29,7.15C444.75,287.21,454.11,320.45,454.11,355.88z"/>
		<rect id="XMLID_1145_" x="390.064" y="186.595" style="fill:#CBA17E;" width="68.116" height="71.91"/>
		<path id="XMLID_1240_" style="fill:#DC4355;" d="M512,256c0,69.98-28.09,133.4-73.59,179.62c-0.69,0.7-1.38,1.39-2.07,2.08
			c-7.08,7.03-14.58,13.65-22.44,19.82c-20.99,16.47-44.61,29.73-70.14,39.03c-20.44,7.47-42.1,12.4-64.59,14.42V307.7
			c0,0,2.73-17.09,15.31-32.2c0.59-0.7,1.19-1.4,1.82-2.09c0.31-0.35,0.63-0.69,0.96-1.04c0.33-0.34,0.66-0.68,1-1.02
			c5.72-5.77,13.09-10.95,22.53-14.36c5-1.81,9.87-3.88,14.54-6.12c1.68-0.79,3.32-1.61,4.94-2.44c3.01-1.54,5.91-3.14,8.7-4.75
			c6.09-3.52,11.62-7.13,16.43-10.5c6.37-4.44,11.48-8.46,14.9-11.28c3.12-2.58,4.84-4.15,4.84-4.15
			c-0.11,3.33,1.85,7.64,4.92,12.29c2.33,3.53,5.3,7.26,8.48,10.9v0.01c0.3,0.34,0.6,0.67,0.91,0.99c0.28,0.3,0.57,0.6,0.87,0.88
			c0.06,0.06,0.12,0.12,0.18,0.17c0.23,0.23,0.47,0.45,0.71,0.66c0.17,0.16,0.35,0.31,0.52,0.45c0.32,0.28,0.65,0.55,0.98,0.81
			c0.12,0.1,0.24,0.19,0.36,0.28c0.15,0.12,0.31,0.23,0.47,0.35c0.99,0.73,2.02,1.39,3.07,1.98c3.02,1.69,6.26,2.84,9.58,3.44
			c2.6,0.46,5.26,0.59,7.89,0.39c2.07-0.17,4.13-0.55,6.15-1.13c5.41-1.57,10.48-4.66,14.51-9.27c7.35-8.43,13.59-17.33,13.4-23.2
			c0,0,0.01,0.01,0.04,0.03c0.35,0.33,3.01,2.73,7.46,6.29c3.9,3.11,9.19,7.11,15.51,11.37c8.52,5.73,18.89,11.93,30.33,17.08
			c0.1,0.04,0.2,0.1,0.31,0.13c0.06,0.03,0.13,0.06,0.19,0.08C511.99,253.82,512,254.91,512,256z"/>
		<path id="XMLID_1227_" style="fill:#9F354D;" d="M406.61,247.52c-0.58,0.31-1.17,0.61-1.75,0.91c-1.62,0.83-3.27,1.65-4.95,2.44
			c-3.19,1.53-6.48,2.99-9.85,4.34c-1.54,0.61-3.11,1.21-4.68,1.78c-0.27,0.1-0.53,0.19-0.79,0.3c-1.05,0.39-2.08,0.81-3.07,1.25
			c-32.15,14.09-37.76,49.16-37.76,49.16v188.85c-20.44,7.47-42.1,12.4-64.59,14.42V307.7c0,0,2.73-17.09,15.31-32.2
			c0.59-0.7,1.19-1.4,1.82-2.09c0.31-0.35,0.63-0.69,0.96-1.04c0.33-0.34,0.66-0.68,1-1.02c5.72-5.77,13.09-10.95,22.53-14.36
			c5-1.81,9.87-3.88,14.54-6.12c1.68-0.79,3.32-1.61,4.94-2.44c3.01-1.54,5.91-3.14,8.7-4.75c6.09-3.52,11.62-7.13,16.43-10.5
			c6.37-4.44,11.48-8.46,14.9-11.28c3.12-2.58,4.84-4.15,4.84-4.15c-0.11,3.33,1.85,7.64,4.92,12.29c2.33,3.53,5.3,7.26,8.48,10.9
			v0.01c0.3,0.34,0.6,0.67,0.91,0.99c0.28,0.3,0.58,0.59,0.87,0.88c0.06,0.06,0.12,0.12,0.18,0.17c0.24,0.23,0.47,0.45,0.71,0.66
			c0.17,0.16,0.35,0.31,0.52,0.45c0.32,0.28,0.65,0.55,0.98,0.81c0.12,0.1,0.24,0.19,0.36,0.28c0.15,0.12,0.31,0.24,0.47,0.35
			C404.53,246.27,405.56,246.93,406.61,247.52z"/>
		<path id="XMLID_1141_" style="fill:#F8E78F;" d="M394.376,196.435c0,0-30.156,11.249-3.062,80.792c0,0,8.175-28.635,25.049-26.078
			C416.363,251.148,388.24,217.911,394.376,196.435z"/>
		<path id="XMLID_1140_" style="fill:#F8E78F;" d="M451.399,196.506c0,0,30.156,11.249,3.062,80.792c0,0-8.175-28.635-25.049-26.078
			C429.411,251.219,457.535,217.982,451.399,196.506z"/>
		<path id="XMLID_1139_" style="fill:#E8B88F;" d="M488.434,137.688c-0.364,2.82-1.392,10.37-2.684,15.201
			c0,0-1.055,22.733-12.281,21.586c-0.273,0.837-0.828,2.474-1.701,4.63c-1.938,4.794-5.449,12.18-10.88,19.212
			c-7.869,10.17-19.758,19.613-36.769,19.421c-17.002,0.191-28.891-9.251-36.751-19.421c-5.44-7.032-8.951-14.418-10.889-19.212
			c-1.301-3.22-1.901-5.267-1.901-5.267c1.21-8.86-3.63-41.89-3.63-41.89c-2.82-23.36,3.63-51.96,3.63-51.96
			c8.86-26.18,49.541-24.57,49.541-24.57s40.68-1.61,49.541,24.57c0,0,6.45,28.6,3.63,51.96c0,0-0.173,1.183-0.446,3.157
			c2.938-1.956,8.424-4.667,11.098,0.082C488.371,135.941,488.544,136.824,488.434,137.688z"/>
		<path id="XMLID_1138_" style="fill:#D2A886;" d="M417.947,197.727c-7.459-9.863-11.592-21.82-12.395-34.16
			c-0.847-13.026-3.57-31.619-3.57-31.619c-2.816-23.367,3.622-51.957,3.622-51.957c5.234-15.453,21.55-21.221,34.04-23.355
			c-8.686-1.487-15.521-1.215-15.521-1.215s-40.682-1.612-49.549,24.57c0,0-6.438,28.59-3.622,51.957c0,0,0.173,1.183,0.445,3.156
			c-2.942-1.959-8.42-4.666-11.099,0.08c-0.428,0.759-0.596,1.637-0.485,2.501c0.36,2.822,1.392,10.372,2.682,15.208
			c0,0,1.054,22.726,12.281,21.585c1.75,5.426,15.287,43.642,49.348,43.262c5.745,0.068,10.911-0.965,15.521-2.77
			C430.32,211.362,423.202,204.676,417.947,197.727z"/>
		<path id="XMLID_1137_" style="fill:#EBB141;" d="M485.056,98.117c0,0-2.622-23.645-18.203-35.418
			c-0.016-1.367-0.376-2.777-1.207-4.124c-6.685-10.828-20.378-22.707-48.287-22.707c0,0-58.444,3.711-57.164,52.521
			c0.062,2.348,1.365,4.405,3.312,5.479c-1.045,14.02-1.035,29.922,7.89,41.235c0,0,6.368-23.263,5.335-41.73
			c1.706-0.552,3.524-1.291,5.454-2.28c0,0,34.679-30.246,74.777-20.607c2.179,0.524,4.21,0.155,5.86-0.786
			c8.047,7.719,17.034,24.771,14.468,62.247C477.291,131.947,488.746,122.613,485.056,98.117z"/>
		<path id="XMLID_1136_" style="fill:#BC8A37;" d="M382.154,88.393c0.011,0.817,0.182,1.601,0.488,2.328
			c-0.295,0.238-0.454,0.375-0.454,0.375c-1.93,0.988-3.747,1.726-5.45,2.282c1.033,18.462-5.341,41.726-5.341,41.726
			c-8.924-11.309-8.932-27.215-7.887-41.238c-1.942-1.067-3.247-3.122-3.315-5.473c-1.272-48.812,57.168-52.524,57.168-52.524
			c5.109,0,9.753,0.397,13.954,1.124C415.365,40.035,381.166,50.935,382.154,88.393z"/>
		<rect id="XMLID_1132_" x="54.789" y="186.595" style="fill:#CBA17E;" width="68.116" height="71.91"/>
		<path id="XMLID_1272_" style="fill:#8ADB8C;" d="M228.83,307.71v202.86c-19.81-2.08-38.95-6.43-57.15-12.79
			c-10.17-3.54-20.04-7.71-29.58-12.46c-14.66-7.29-28.52-15.95-41.42-25.8c-7.05-5.4-13.82-11.15-20.27-17.23
			c-2.87-2.7-5.67-5.47-8.41-8.3C42.04,403.02,19.82,364.5,8.48,321.57C2.95,300.64,0,278.66,0,256c0-1.71,0.02-3.42,0.05-5.13
			c1.68-0.79,3.33-1.61,4.95-2.44c1.19-0.61,2.37-1.23,3.53-1.86c1.16-0.63,2.31-1.26,3.43-1.9c0.57-0.32,1.13-0.64,1.68-0.96
			c0.91-0.52,1.8-1.05,2.67-1.57c5.06-3.02,9.7-6.08,13.81-8.96c6.37-4.44,11.48-8.46,14.9-11.28c3.12-2.58,4.84-4.15,4.84-4.15
			c-0.04,1.35,0.25,2.87,0.83,4.49c0.15,0.44,0.33,0.88,0.52,1.34c0.48,1.13,1.07,2.3,1.76,3.52c0.28,0.48,0.57,0.97,0.87,1.47
			c0.3,0.49,0.62,0.98,0.95,1.48c0.17,0.26,0.34,0.52,0.52,0.78c0.35,0.51,0.7,1.02,1.07,1.53c0.55,0.77,1.13,1.55,1.73,2.33
			c0.4,0.52,0.81,1.04,1.22,1.56c0.3,0.38,0.61,0.76,0.92,1.14c0.33,0.4,0.66,0.8,1,1.21c0.66,0.78,1.33,1.56,2.01,2.34v0.01
			c0.3,0.34,0.6,0.67,0.91,0.99c0.28,0.3,0.57,0.6,0.87,0.88c0.02,0.02,0.05,0.04,0.07,0.06c0.32,0.32,0.64,0.62,0.97,0.9
			c0.27,0.24,0.54,0.47,0.81,0.69c0.11,0.09,0.23,0.19,0.34,0.28c0.27,0.22,0.54,0.43,0.82,0.63c0.07,0.05,0.14,0.1,0.21,0.16
			c0.3,0.22,0.6,0.43,0.9,0.63c0.27,0.19,0.54,0.36,0.81,0.53c0.45,0.29,0.9,0.56,1.36,0.82c3.02,1.7,6.27,2.84,9.59,3.44
			c3.21,0.57,6.49,0.64,9.71,0.18c1.46-0.2,2.91-0.51,4.33-0.92c5.41-1.58,10.47-4.67,14.5-9.27c7.36-8.43,13.59-17.33,13.4-23.2
			c0,0,0.02,0.02,0.05,0.04c0.39,0.36,3.04,2.75,7.45,6.27c3.9,3.11,9.2,7.12,15.52,11.38c4.84,3.26,10.29,6.67,16.18,9.95
			c4.47,2.49,9.21,4.9,14.14,7.13c0.1,0.04,0.21,0.1,0.32,0.13c3.47,1.57,7.04,3.02,10.68,4.34c4.18,1.51,7.96,3.37,11.36,5.47
			C224.12,278.23,228.83,307.71,228.83,307.71z"/>
		<path id="XMLID_1233_" style="fill:#78C478;" d="M71.33,247.52c-0.57,0.31-1.16,0.61-1.74,0.91c-1.62,0.83-3.27,1.65-4.95,2.44
			c-3.2,1.53-6.49,2.99-9.85,4.33c-1.55,0.62-3.11,1.22-4.69,1.79c-0.26,0.09-0.52,0.19-0.78,0.29
			C14.44,270.41,8.48,307.7,8.48,307.7v13.87C2.95,300.64,0,278.66,0,256c0-1.71,0.02-3.42,0.05-5.13c1.68-0.79,3.33-1.61,4.95-2.44
			c1.19-0.61,2.37-1.23,3.53-1.86c1.16-0.63,2.31-1.26,3.43-1.9c0.57-0.32,1.13-0.64,1.68-0.96c0.9-0.52,1.8-1.04,2.67-1.57
			c5.06-3.02,9.7-6.08,13.81-8.96c6.37-4.44,11.48-8.46,14.9-11.28c3.12-2.58,4.84-4.15,4.84-4.15c-0.04,1.35,0.25,2.87,0.83,4.49
			c0.15,0.44,0.33,0.88,0.52,1.34c0.48,1.13,1.07,2.3,1.76,3.52c0.27,0.48,0.57,0.97,0.87,1.47c0.3,0.49,0.62,0.98,0.95,1.48
			c0.17,0.26,0.34,0.52,0.52,0.78c0.34,0.5,0.7,1.01,1.07,1.53c0.55,0.77,1.13,1.55,1.73,2.33c0.4,0.52,0.8,1.04,1.22,1.56
			c0.3,0.38,0.61,0.76,0.92,1.14c0.33,0.4,0.67,0.81,1,1.21c0.66,0.78,1.33,1.56,2.01,2.34v0.01c0.3,0.34,0.6,0.67,0.91,0.99
			c0.28,0.3,0.57,0.59,0.87,0.88c0.02,0.02,0.05,0.04,0.07,0.06c0.32,0.31,0.64,0.61,0.97,0.9c0.27,0.24,0.54,0.47,0.81,0.69
			c0.11,0.09,0.23,0.19,0.34,0.28c0.27,0.21,0.54,0.42,0.82,0.63c0.07,0.05,0.14,0.1,0.21,0.16c0.29,0.21,0.6,0.43,0.9,0.63
			c0.27,0.19,0.54,0.36,0.81,0.53C70.42,246.99,70.87,247.26,71.33,247.52z"/>
		<path id="XMLID_874_" style="fill:#FFFFFF;" d="M59.101,196.435c0,0-30.156,11.249-3.062,80.792c0,0,8.175-28.635,25.049-26.078
			C81.089,251.148,52.965,217.911,59.101,196.435z"/>
		<path id="XMLID_873_" style="fill:#FFFFFF;" d="M116.124,196.506c0,0,30.156,11.249,3.062,80.792c0,0-8.175-28.635-25.049-26.078
			C94.136,251.219,122.26,217.982,116.124,196.506z"/>
		<path id="XMLID_872_" style="fill:#E8B88F;" d="M153.16,137.688c-0.364,2.82-1.392,10.37-2.684,15.201
			c0,0-1.055,22.733-12.281,21.586c-0.273,0.837-0.828,2.474-1.701,4.63c-1.938,4.794-5.449,12.18-10.88,19.212
			c-7.869,10.17-19.758,19.613-36.769,19.421c-17.002,0.191-28.891-9.251-36.751-19.421c-5.44-7.032-8.951-14.418-10.889-19.212
			c-1.301-3.22-1.901-5.267-1.901-5.267c1.21-8.86-3.63-41.89-3.63-41.89c-2.82-23.36,3.63-51.96,3.63-51.96
			c8.86-26.18,49.541-24.57,49.541-24.57s40.68-1.61,49.541,24.57c0,0,6.45,28.6,3.63,51.96c0,0-0.173,1.183-0.446,3.157
			c2.938-1.956,8.424-4.667,11.098,0.082C153.096,135.941,153.269,136.824,153.16,137.688z"/>
		<path id="XMLID_871_" style="fill:#D2A886;" d="M82.672,197.727c-7.459-9.863-11.592-21.82-12.395-34.16
			c-0.847-13.026-3.57-31.619-3.57-31.619c-2.816-23.367,3.622-51.957,3.622-51.957c5.234-15.453,21.55-21.221,34.04-23.355
			c-8.686-1.487-15.521-1.215-15.521-1.215s-40.682-1.612-49.549,24.57c0,0-6.438,28.59-3.622,51.957c0,0,0.173,1.183,0.445,3.156
			c-2.942-1.959-8.42-4.666-11.099,0.08c-0.428,0.759-0.596,1.637-0.485,2.501c0.36,2.822,1.392,10.372,2.682,15.208
			c0,0,1.054,22.726,12.281,21.585c1.75,5.426,15.287,43.642,49.348,43.262c5.745,0.068,10.911-0.965,15.521-2.77
			C95.045,211.362,87.927,204.676,82.672,197.727z"/>
		<path id="XMLID_870_" style="fill:#DC4355;" d="M149.781,98.117c0,0-2.622-23.645-18.203-35.418
			c-0.016-1.367-0.376-2.777-1.207-4.124c-6.685-10.828-20.378-22.707-48.287-22.707c0,0-58.444,3.711-57.164,52.521
			c0.062,2.348,1.365,4.405,3.312,5.479c-1.045,14.02-1.035,29.922,7.89,41.235c0,0,6.368-23.263,5.335-41.73
			c1.706-0.552,3.524-1.291,5.454-2.28c0,0,34.679-30.246,74.777-20.607c2.179,0.524,4.21,0.155,5.86-0.786
			c8.047,7.719,17.034,24.771,14.468,62.247C142.016,131.947,153.471,122.613,149.781,98.117z"/>
		<path id="XMLID_869_" style="fill:#9F354D;" d="M46.879,88.393c0.011,0.817,0.182,1.601,0.488,2.328
			c-0.295,0.238-0.454,0.375-0.454,0.375c-1.93,0.988-3.747,1.726-5.45,2.282c1.033,18.462-5.341,41.726-5.341,41.726
			c-8.924-11.309-8.932-27.215-7.887-41.238c-1.942-1.067-3.247-3.122-3.315-5.473c-1.272-48.812,57.168-52.524,57.168-52.524
			c5.109,0,9.753,0.397,13.954,1.124C80.09,40.035,45.891,50.935,46.879,88.393z"/>
		<rect id="XMLID_868_" x="222.583" y="174.57" style="fill:#CBA17E;" width="74.88" height="79.05"/>
		<path id="XMLID_1257_" style="fill:#F8E78F;" d="M413.9,307.71v149.81c-20.99,16.47-44.61,29.73-70.14,39.03
			c-20.44,7.47-42.1,12.4-64.59,14.42c-7.63,0.68-15.36,1.03-23.17,1.03c-9.18,0-18.24-0.48-27.17-1.43
			c-19.81-2.08-38.95-6.43-57.15-12.79c-10.17-3.54-20.04-7.71-29.58-12.46c-14.66-7.29-28.52-15.95-41.42-25.8V307.71
			c0,0,2.99-18.73,16.77-35.33c0.66-0.79,1.35-1.59,2.06-2.37c0.69-0.76,1.41-1.52,2.15-2.26c0.49-0.5,1-1,1.52-1.48
			c0.26-0.25,0.51-0.49,0.77-0.73c5.93-5.44,13.32-10.27,22.48-13.58c5.38-1.94,10.61-4.17,15.63-6.57c0.12-0.05,0.23-0.1,0.35-0.16
			c1.85-0.87,3.66-1.77,5.44-2.68c0.66-0.34,1.31-0.67,1.96-1.02c2.59-1.37,5.1-2.76,7.54-4.17c0.61-0.35,1.22-0.7,1.81-1.06
			c1.2-0.71,2.38-1.42,3.54-2.13c1.16-0.71,2.29-1.42,3.41-2.13c3.33-2.12,6.47-4.22,9.36-6.25c4.37-3.05,8.2-5.92,11.37-8.38
			c0.48-0.38,0.94-0.74,1.38-1.09c1.35-1.07,2.56-2.05,3.62-2.93c3.43-2.83,5.33-4.57,5.33-4.57c-0.12,3.67,2.04,8.4,5.41,13.51
			c0,0,0,0,0,0.01c2.56,3.88,5.82,7.98,9.32,11.98c0.33,0.37,0.66,0.74,1,1.09c0.31,0.33,0.63,0.66,0.96,0.97
			c0.74,0.72,1.51,1.4,2.3,2.03c0.27,0.22,0.54,0.44,0.81,0.64c1.11,0.85,2.27,1.62,3.46,2.3c3.41,1.98,7.11,3.3,10.89,3.98
			c5.12,0.91,10.41,0.64,15.42-0.81c5.95-1.73,11.52-5.13,15.95-10.2c8.08-9.26,14.94-19.05,14.72-25.5c0,0,0.02,0.02,0.05,0.05
			c0.41,0.37,3.33,3,8.2,6.88c4.29,3.43,10.11,7.83,17.05,12.52c7.57,5.09,16.48,10.52,26.26,15.41c2.31,1.15,4.67,2.28,7.08,3.36
			c0.11,0.05,0.23,0.11,0.35,0.15c3.82,1.72,7.74,3.32,11.75,4.77c4.96,1.79,9.4,4.03,13.37,6.58c1.51,0.95,2.94,1.96,4.31,3
			c3.18,2.4,6.01,5.01,8.53,7.7C410.51,286.52,413.9,307.71,413.9,307.71z"/>
		<path id="XMLID_1228_" style="fill:#D9CB80;" d="M240.77,241.55c-0.63,0.34-1.28,0.67-1.92,1c-1.78,0.91-3.59,1.81-5.44,2.68
			c-3.51,1.69-7.13,3.29-10.83,4.76c-1.7,0.69-3.42,1.34-5.15,1.97c-0.29,0.1-0.58,0.21-0.86,0.32
			c-7.02,2.64-12.97,6.17-18.01,10.18c-22.51,17.89-26.88,45.25-26.88,45.25v190.07c-10.17-3.54-20.04-7.71-29.58-12.46
			c-14.66-7.29-28.52-15.95-41.42-25.8V307.71c0,0,2.99-18.73,16.77-35.33c0.66-0.79,1.35-1.59,2.06-2.37
			c0.69-0.76,1.41-1.52,2.15-2.26c0.49-0.5,1-1,1.52-1.48v-0.01c0.25-0.24,0.51-0.48,0.77-0.72c5.93-5.44,13.32-10.27,22.48-13.58
			c5.38-1.94,10.61-4.17,15.63-6.57c0.12-0.05,0.23-0.1,0.35-0.16c1.85-0.87,3.66-1.77,5.44-2.68c0.66-0.34,1.31-0.67,1.96-1.02
			c2.59-1.36,5.1-2.75,7.54-4.17c0.61-0.35,1.22-0.7,1.81-1.06c1.2-0.71,2.38-1.42,3.54-2.13c1.16-0.71,2.29-1.42,3.41-2.13
			c3.33-2.12,6.47-4.22,9.36-6.25c4.37-3.05,8.2-5.92,11.37-8.38c0.48-0.38,0.94-0.74,1.38-1.09c1.35-1.07,2.56-2.05,3.62-2.93
			c3.43-2.83,5.33-4.57,5.33-4.57c-0.12,3.67,2.04,8.4,5.41,13.51c0,0,0,0,0,0.01c2.56,3.88,5.82,7.98,9.32,11.98
			c0.33,0.37,0.66,0.74,1,1.09c0.31,0.33,0.63,0.66,0.96,0.97c0.74,0.72,1.51,1.4,2.3,2.03c0.27,0.23,0.54,0.44,0.81,0.64
			c1.11,0.85,2.27,1.62,3.46,2.3C240.54,241.42,240.66,241.49,240.77,241.55z"/>
		<path id="XMLID_875_" style="fill:#85C7EC;" d="M227.323,185.388c0,0-33.151,12.367-3.366,88.814c0,0,8.987-31.478,27.537-28.668
			C251.494,245.534,220.577,208.996,227.323,185.388z"/>
		<path id="XMLID_876_" style="fill:#85C7EC;" d="M290.008,185.466c0,0,33.151,12.367,3.366,88.814c0,0-8.987-31.478-27.537-28.668
			C265.837,245.612,296.753,209.074,290.008,185.466z"/>
		<path id="XMLID_1133_" style="fill:#E8B88F;" d="M330.721,120.807c-0.4,3.1-1.53,11.4-2.95,16.71c0,0-1.16,24.99-13.5,23.73
			c-0.3,0.92-0.91,2.72-1.87,5.09c-2.13,5.27-5.99,13.39-11.96,21.12c-8.65,11.18-21.72,21.56-40.42,21.35
			c-18.69,0.21-31.76-10.17-40.4-21.35c-5.98-7.73-9.84-15.85-11.97-21.12c-1.43-3.54-2.09-5.79-2.09-5.79
			c1.33-9.74-3.99-46.05-3.99-46.05c-3.1-25.68,3.99-57.12,3.99-57.12c9.74-28.78,54.46-27.01,54.46-27.01s44.72-1.77,54.46,27.01
			c0,0,7.09,31.44,3.99,57.12c0,0-0.19,1.3-0.49,3.47c3.23-2.15,9.26-5.13,12.2,0.09
			C330.651,118.887,330.841,119.857,330.721,120.807z"/>
		<path id="XMLID_1134_" style="fill:#D2A886;" d="M253.234,186.808c-8.2-10.843-12.744-23.987-13.625-37.552
			c-0.931-14.32-3.924-34.759-3.924-34.759c-3.095-25.687,3.982-57.116,3.982-57.116c5.754-16.987,23.69-23.328,37.42-25.675
			c-9.548-1.635-17.062-1.336-17.062-1.336s-44.722-1.772-54.47,27.01c0,0-7.077,31.429-3.982,57.116c0,0,0.19,1.3,0.489,3.469
			c-3.234-2.154-9.256-5.129-12.201,0.088c-0.471,0.834-0.655,1.8-0.533,2.75c0.396,3.102,1.53,11.402,2.948,16.718
			c0,0,1.159,24.982,13.5,23.728c1.924,5.965,16.805,47.975,54.249,47.558c6.316,0.075,11.995-1.061,17.062-3.046
			C266.836,201.797,259.011,194.447,253.234,186.808z"/>
		<path id="XMLID_1135_" style="fill:#354488;" d="M327.007,77.306c0,0-2.882-25.993-20.011-38.935
			c-0.017-1.503-0.413-3.053-1.327-4.533c-7.348-11.903-22.401-24.961-53.082-24.961c0,0-64.247,4.079-62.84,57.736
			c0.068,2.581,1.501,4.842,3.641,6.023c-1.149,15.412-1.138,32.893,8.673,45.329c0,0,7-25.573,5.864-45.874
			c1.875-0.607,3.874-1.419,5.996-2.506c0,0,38.123-33.25,82.202-22.653c2.395,0.576,4.628,0.17,6.442-0.864
			c8.846,8.486,18.726,27.231,15.905,68.428C318.471,114.496,331.064,104.235,327.007,77.306z"/>
		<path id="XMLID_1142_" style="fill:#2E3B6B;" d="M213.887,66.617c0.012,0.899,0.2,1.76,0.537,2.559
			c-0.325,0.262-0.499,0.412-0.499,0.412c-2.122,1.086-4.119,1.897-5.991,2.509c1.136,20.295-5.871,45.869-5.871,45.869
			c-9.811-12.432-9.818-29.918-8.67-45.333c-2.134-1.173-3.57-3.432-3.645-6.016c-1.398-53.659,62.845-57.74,62.845-57.74
			c5.617,0,10.722,0.437,15.34,1.236C250.396,13.458,212.801,25.44,213.887,66.617z"/>
		<g id="XMLID_1143_">
			<g id="XMLID_1690_">
				<path id="XMLID_1691_" style="fill:#CB9B74;" d="M409.151,122.539c-0.768,0-1.536-0.293-2.121-0.879
					c-4.57-4.569-12.005-4.569-16.575,0c-1.171,1.172-3.071,1.172-4.242,0c-1.172-1.171-1.172-3.071,0-4.242
					c6.908-6.909,18.151-6.909,25.06,0c1.172,1.171,1.172,3.071,0,4.242C410.687,122.246,409.919,122.539,409.151,122.539z"/>
			</g>
			<circle id="XMLID_1689_" style="fill:#CB9B74;" cx="399.492" cy="129.312" r="5.867"/>
			<circle id="XMLID_1688_" style="fill:#CB9B74;" cx="449.502" cy="129.312" r="5.867"/>
			<g id="XMLID_1686_">
				<path id="XMLID_1687_" style="fill:#CB9B74;" d="M459.91,122.539c-0.768,0-1.535-0.293-2.121-0.878
					c-2.214-2.214-5.157-3.433-8.288-3.433s-6.073,1.219-8.287,3.433c-1.17,1.172-3.07,1.171-4.242,0
					c-1.172-1.172-1.172-3.071,0-4.243c3.347-3.347,7.796-5.19,12.529-5.19s9.184,1.843,12.53,5.19c1.172,1.172,1.172,3.071,0,4.243
					C461.447,122.246,460.678,122.539,459.91,122.539z"/>
			</g>
			<g id="XMLID_1684_">
				<path id="XMLID_1685_" style="fill:#CB9B74;" d="M416.862,148.077c-0.243,0-0.49-0.029-0.736-0.092
					c-1.607-0.405-2.581-2.036-2.175-3.642l5.8-23c0.406-1.606,2.035-2.583,3.643-2.175c1.606,0.405,2.581,2.036,2.176,3.642
					l-5.801,23C419.425,147.171,418.203,148.077,416.862,148.077z"/>
			</g>
		</g>
		<g id="XMLID_1155_">
			<g id="XMLID_3403_">
				<path id="XMLID_3404_" style="fill:#CB9B74;" d="M73.876,122.539c-0.768,0-1.536-0.293-2.121-0.879
					c-4.57-4.569-12.005-4.569-16.575,0c-1.171,1.172-3.071,1.172-4.242,0c-1.172-1.171-1.172-3.071,0-4.242
					c6.908-6.909,18.151-6.909,25.06,0c1.172,1.171,1.172,3.071,0,4.242C75.412,122.246,74.644,122.539,73.876,122.539z"/>
			</g>
			<circle id="XMLID_3402_" style="fill:#CB9B74;" cx="64.217" cy="129.312" r="5.867"/>
			<circle id="XMLID_3400_" style="fill:#CB9B74;" cx="114.227" cy="129.312" r="5.867"/>
			<g id="XMLID_3130_">
				<path id="XMLID_3399_" style="fill:#CB9B74;" d="M124.636,122.539c-0.768,0-1.535-0.293-2.121-0.878
					c-2.214-2.214-5.157-3.433-8.288-3.433s-6.073,1.219-8.287,3.433c-1.17,1.172-3.07,1.171-4.242,0
					c-1.172-1.172-1.172-3.071,0-4.243c3.347-3.347,7.796-5.19,12.529-5.19s9.184,1.843,12.53,5.19c1.172,1.172,1.172,3.071,0,4.243
					C126.172,122.246,125.403,122.539,124.636,122.539z"/>
			</g>
			<g id="XMLID_2777_">
				<path id="XMLID_3104_" style="fill:#CB9B74;" d="M81.587,148.077c-0.243,0-0.49-0.029-0.736-0.092
					c-1.607-0.405-2.581-2.036-2.175-3.642l5.8-23c0.406-1.606,2.035-2.583,3.643-2.175c1.606,0.405,2.581,2.036,2.176,3.642
					l-5.801,23C84.15,147.171,82.928,148.077,81.587,148.077z"/>
			</g>
		</g>
		<g id="XMLID_1198_">
			<g id="XMLID_2432_">
				<path id="XMLID_2776_" style="fill:#CB9B74;" d="M245.274,104.061c-0.824,0-1.649-0.315-2.278-0.944
					c-4.908-4.906-12.891-4.906-17.798,0c-1.257,1.258-3.298,1.258-4.555,0c-1.258-1.258-1.258-3.297,0-4.555
					c7.418-7.419,19.491-7.419,26.908,0c1.258,1.258,1.258,3.297,0,4.555C246.923,103.746,246.099,104.061,245.274,104.061z"/>
			</g>
			<circle id="XMLID_2431_" style="fill:#CB9B74;" cx="234.903" cy="111.555" r="6.3"/>
			<circle id="XMLID_2427_" style="fill:#CB9B74;" cx="288.602" cy="111.555" r="6.3"/>
			<g id="XMLID_1693_">
				<path id="XMLID_2426_" style="fill:#CB9B74;" d="M299.779,104.061c-0.824,0-1.648-0.315-2.278-0.943
					c-2.377-2.377-5.538-3.686-8.9-3.686s-6.521,1.309-8.899,3.686c-1.256,1.258-3.297,1.258-4.555,0.001
					c-1.258-1.258-1.258-3.298,0-4.556c3.594-3.594,8.371-5.573,13.454-5.573c5.083,0,9.861,1.979,13.455,5.573
					c1.258,1.258,1.258,3.298,0,4.556C301.428,103.746,300.603,104.061,299.779,104.061z"/>
			</g>
			<g id="XMLID_1647_">
				<path id="XMLID_1692_" style="fill:#CB9B74;" d="M253.554,131.483c-0.261,0-0.526-0.031-0.79-0.099
					c-1.725-0.435-2.771-2.186-2.336-3.911l6.228-24.697c0.436-1.724,2.185-2.774,3.911-2.336c1.725,0.435,2.771,2.186,2.336,3.911
					l-6.229,24.697C256.306,130.51,254.994,131.483,253.554,131.483z"/>
			</g>
		</g>
		<path id="XMLID_1199_" style="fill:#FFFFFF;" d="M479.251,131.243c-2.131-1.329-4.937-0.676-6.266,1.455l-7.965,12.785h-20.556
			c-4.625-4.555-12.015-7.505-20.342-7.505c-8.327,0-15.717,2.95-20.342,7.505h-21.34c-3.293,0-5.958,2.665-5.958,5.958v27.663
			c1.938,4.794,5.449,12.18,10.889,19.212c24.497,8.596,49.013,8.596,73.519,0c5.431-7.032,8.942-14.418,10.88-19.212v-27.25
			l8.938-14.346C482.035,135.377,481.383,132.571,479.251,131.243z"/>
		<path id="XMLID_1201_" style="fill:#D6D5D4;" d="M424.121,137.979c-8.323,0-15.719,2.947-20.34,7.505h-20.786l-7.605-12.568
			c-1.23-2.032-3.814-2.948-5.954-1.916c-2.455,1.183-3.307,4.183-1.93,6.459l8.62,14.246c0.108,0.179,0.228,0.348,0.355,0.506
			v26.894c1.938,4.794,5.449,12.18,10.889,19.212c4.412,1.546,8.833,2.82,13.245,3.802c-4.958-6.686-8.196-13.545-10.034-18.084
			v-27.663c0-3.291,2.668-5.958,5.958-5.958h10.05c5.848,0,11.665-1.274,16.836-4.007c4.165-2.202,9.276-3.498,14.795-3.498
			c1.128,0,2.238,0.055,3.32,0.164C436.993,139.916,430.871,137.979,424.121,137.979z"/>
		<path id="XMLID_1202_" style="fill:#FFFFFF;" d="M320.626,113.722c-2.343-1.461-5.427-0.743-6.888,1.6l-8.756,14.055h-22.597
			c-5.085-5.008-13.208-8.25-22.362-8.25c-9.154,0-17.278,3.242-22.362,8.25h-23.459c-3.62,0-6.55,2.93-6.55,6.55v30.41
			c2.13,5.27,5.99,13.39,11.97,21.12c26.93,9.45,53.88,9.45,80.82,0c5.97-7.73,9.83-15.85,11.96-21.12v-29.956l9.826-15.771
			C323.687,118.266,322.97,115.182,320.626,113.722z"/>
		<path id="XMLID_1203_" style="fill:#D6D5D4;" d="M260.021,121.127c-9.15,0-17.28,3.24-22.36,8.25h-22.85l-8.36-13.816
			c-1.352-2.234-4.193-3.241-6.545-2.107c-2.699,1.301-3.635,4.599-2.121,7.1l9.476,15.661c0.119,0.197,0.25,0.382,0.391,0.556
			v29.565c2.13,5.27,5.99,13.39,11.97,21.12c4.85,1.7,9.71,3.1,14.56,4.18c-5.45-7.35-9.01-14.89-11.03-19.88v-30.41
			c0-3.617,2.933-6.55,6.55-6.55h11.048c6.429,0,12.824-1.4,18.507-4.405c4.578-2.421,10.197-3.845,16.264-3.845
			c1.24,0,2.46,0.06,3.65,0.18C274.171,123.257,267.441,121.127,260.021,121.127z"/>
		<path id="XMLID_1204_" style="fill:#FFFFFF;" d="M143.976,131.243c-2.131-1.329-4.937-0.676-6.266,1.455l-7.965,12.785H109.19
			c-4.625-4.555-12.015-7.505-20.342-7.505c-8.327,0-15.717,2.95-20.342,7.505h-21.34c-3.293,0-5.958,2.665-5.958,5.958v27.663
			c1.938,4.794,5.449,12.18,10.889,19.212c24.497,8.596,49.013,8.596,73.519,0c5.431-7.032,8.942-14.418,10.88-19.212v-27.25
			l8.938-14.346C146.761,135.377,146.109,132.571,143.976,131.243z"/>
		<path id="XMLID_1205_" style="fill:#D6D5D4;" d="M88.846,137.979c-8.323,0-15.719,2.947-20.34,7.505H47.719l-7.605-12.568
			c-1.23-2.032-3.814-2.948-5.954-1.916c-2.455,1.183-3.307,4.183-1.93,6.459l8.62,14.246c0.108,0.179,0.228,0.348,0.355,0.506
			v26.894c1.938,4.794,5.449,12.18,10.889,19.212c4.412,1.546,8.833,2.82,13.245,3.802c-4.958-6.686-8.196-13.545-10.034-18.084
			v-27.663c0-3.291,2.668-5.958,5.958-5.958h10.05c5.848,0,11.665-1.274,16.836-4.007c4.165-2.202,9.276-3.498,14.795-3.498
			c1.128,0,2.238,0.055,3.32,0.164C101.718,139.916,95.596,137.979,88.846,137.979z"/>
	</g>
</g>
</svg>
