<svg xmlns="http://www.w3.org/2000/svg" viewBox="0 0 48 48"><defs><style>.cls-1{fill:#dad7e5;}.cls-2{fill:#6fabe6;}.cls-3{fill:#edebf2;}.cls-4{fill:#82bcf4;}.cls-5{fill:#c6c3d8;}.cls-6{fill:#425b72;}.cls-7{fill:#374f68;}.cls-8{fill:#db5669;}.cls-9{fill:#f6ccaf;}.cls-10{fill:#ffdec7;}.cls-11{fill:#f26674;}</style></defs><title>Online Shop</title><g id="Online_Shop" data-name="Online Shop"><path class="cls-1" d="M39,19.87V41H9V19.87A4,4,0,0,0,12,16a4,4,0,0,0,8,0,4,4,0,0,0,8,0,4,4,0,0,0,8,0A4,4,0,0,0,39,19.87Z"/><rect class="cls-2" x="9" y="16" width="2" height="25"/><path class="cls-3" d="M39,21V39H19a4,4,0,0,1-4-4V21a4.08,4.08,0,0,0,3.28-1.72A4,4,0,0,0,20,16a4,4,0,0,0,8,0,4,4,0,0,0,8,.42c0-1.29-.08.75.61,1.66.49.91.41-.2.41,2.38A4,4,0,0,0,39,21Z"/><path class="cls-4" d="M39,16v3.87a4.09,4.09,0,0,1-2-1.22V16Z"/><path class="cls-4" d="M37.38,20.65C36.82,20.44,37,18.09,37,41h2V21A3.89,3.89,0,0,1,37.38,20.65Z"/><path class="cls-1" d="M26.28,19.28A4,4,0,0,1,20,16a4,4,0,0,1-.76,2.33A4,4,0,0,0,26.28,19.28Z"/><path class="cls-1" d="M34.28,19.28A4,4,0,0,1,28,16a4,4,0,0,1-.76,2.33A4,4,0,0,0,34.28,19.28Z"/><path class="cls-5" d="M10.27,19.29c-1.43,1-1.27.07-1.27,1.16A4,4,0,0,0,10.27,19.29Z"/><path class="cls-2" d="M39,19.87V21a4.06,4.06,0,0,1-2-.54C37,17.34,36.59,19.21,39,19.87Z"/><path class="cls-1" d="M37,18.65v1.81a4.06,4.06,0,0,1-1.77-2.13,4,4,0,0,0,.68-1.53c.39-1.54-.34-.57.61,1.17C36.76,18.46,37.45,19.11,37,18.65Z"/><path class="cls-1" d="M18.27,19.29A4,4,0,0,1,15,21V19.87h0A4,4,0,0,0,18.27,19.29Z"/><path class="cls-5" d="M15,19.87V21a4,4,0,0,1-3.76-2.67A4,4,0,0,0,12,16,4,4,0,0,0,15,19.87Z"/><path class="cls-2" d="M39,5V7H9V5a4,4,0,0,1,4-4H35A4,4,0,0,1,39,5Z"/><path class="cls-4" d="M39,5V6H15c0-2-.24-3.6,1.36-5H35A4,4,0,0,1,39,5Z"/><path class="cls-2" d="M39,41c0,1.94.13,2.83-.54,4A4,4,0,0,1,35,47H13a4,4,0,0,1-4-4V41Z"/><path class="cls-4" d="M39,41c0,1.94.13,2.83-.54,4H19a4,4,0,0,1-4-4Z"/><path class="cls-6" d="M26,45H22a1,1,0,0,1,0-2h4A1,1,0,0,1,26,45Z"/><path class="cls-7" d="M26,45H22a1,1,0,0,1-1-1h4A1,1,0,0,1,26,45Z"/><polygon class="cls-8" points="15 7 12 15 4 15 9 7 15 7"/><path class="cls-9" d="M21,7c-1,8.06-.82,6.62-1,8H12l3-8Z"/><path class="cls-10" d="M21,7l-.87,7H18.78A4,4,0,0,1,15,8.59L15.63,7Z"/><path class="cls-8" d="M44,15H36L33,7h6Z"/><path class="cls-11" d="M43.38,14H39.77A4,4,0,0,1,36,11.4L34.38,7H39Z"/><path class="cls-8" d="M28,15H20l1-8h6C28,15,27.83,13.6,28,15Z"/><path class="cls-11" d="M27.88,14H25.53a4,4,0,0,1-4-4.5L21.88,7H27Z"/><path class="cls-9" d="M36,15H28L27,7h6C36,15.08,35.49,13.63,36,15Z"/><path class="cls-10" d="M35.63,14h-3.1a4,4,0,0,1-4-3.51L28.13,7H33Z"/><path class="cls-8" d="M44,15v1a4,4,0,0,1-8,0V15Z"/><path class="cls-8" d="M12,15v1a4,4,0,0,1-8,0V15Z"/><path class="cls-9" d="M36,15v1a4,4,0,0,1-8,0V15Z"/><path class="cls-8" d="M28,15v1a4,4,0,0,1-8,0V15Z"/><path class="cls-9" d="M20,15v1a4,4,0,0,1-8,0V15Z"/></g></svg>